# File created by Blade
# Date/Time:  Fri Jan 16 19:41:12 2015
# Frame Rate: 120.000 fps
#------------------------------------------------------
:FULLY-SPECIFIED
:DEGREES
656
root 18.834378 35.547616 -21.643430 11.322253 7.866074 0.125171
Spine -20.895831 -6.681791 0.639846
Head 13.265832 0.310567 -3.593079
LeftShoulder -21.646201 -38.358751 33.395631
LeftArm -5.749519 -20.621865 6.202526
LeftForeArm -31.024226 0.000000 32.771407
LeftHand 2.531785 -0.000000 34.042939
LeftHandThumb1 -26.253704 0.000000 33.147579
RightShoulder -13.863444 -31.487832 -12.124319
RightArm -2.046398 -40.944427 47.133035
RightForeArm -23.899772 -0.000000 33.971318
RightHand 3.640401 -0.000000 17.818112
RightHandThumb1 -24.326973 -0.000000 -32.862282
LeftUpLeg -1.924553 1.836184 0.521467
LeftLeg -6.994166 -0.000000 0.000000
LeftFoot -19.904986 26.499985 -15.094095
LeftToeBase 23.740542 -0.000000 -0.000000
RightUpLeg -0.918359 -13.448422 -1.286826
RightLeg -3.921290 -0.000000 0.000000
RightFoot -23.147418 -23.991365 21.292380
RightToeBase 22.634003 -0.000000 -0.000000
657
root 18.838431 35.545829 -21.639602 11.266352 7.846691 0.146443
Spine -20.847791 -6.550042 0.629045
Head 13.336814 0.163453 -3.774126
LeftShoulder -21.858307 -38.485699 33.585518
LeftArm -5.945527 -21.366907 6.328213
LeftForeArm -31.311340 -0.000000 36.018825
LeftHand 2.497318 -0.000000 35.595544
LeftHandThumb1 -26.253704 0.000000 33.147579
RightShoulder -13.940924 -32.081735 -11.801476
RightArm -2.390049 -42.391717 48.409060
RightForeArm -24.466213 -0.000000 35.874911
RightHand 3.999431 0.000000 18.231958
RightHandThumb1 -24.326973 -0.000000 -32.862282
LeftUpLeg -1.880282 1.814959 0.498400
LeftLeg -6.943174 -0.000000 0.000000
LeftFoot -19.955022 26.504996 -15.106731
LeftToeBase 23.747160 -0.000000 -0.000000
RightUpLeg -0.878013 -13.428042 -1.331254
RightLeg -3.873201 -0.000000 0.000000
RightFoot -23.198123 -23.992381 21.288202
RightToeBase 22.642778 -0.000000 -0.000000
658
root 18.841474 35.543900 -21.634698 11.213255 7.813539 0.169237
Spine -20.812617 -6.473160 0.639547
Head 13.400448 0.099163 -3.973686
LeftShoulder -22.116568 -38.536233 33.769523
LeftArm -6.106250 -22.100950 6.489951
LeftForeArm -31.667870 -0.000000 39.271742
LeftHand 2.377482 -0.000000 36.962401
LeftHandThumb1 -26.253704 0.000000 33.147579
RightShoulder -13.907620 -32.571339 -11.549593
RightArm -2.810027 -43.732837 49.788469
RightForeArm -25.052751 -0.000000 37.837120
RightHand 4.241938 0.000000 19.249126
RightHandThumb1 -24.326973 -0.000000 -32.862282
LeftUpLeg -1.827631 1.817953 0.471843
LeftLeg -6.908420 -0.000000 0.000000
LeftFoot -19.987575 26.516318 -15.105910
LeftToeBase 23.766686 -0.000000 -0.000000
RightUpLeg -0.833976 -13.383278 -1.379149
RightLeg -3.836066 -0.000000 0.000000
RightFoot -23.229961 -24.016480 21.220553
RightToeBase 22.678667 -0.000000 -0.000000
659
root 18.844700 35.541273 -21.629866 11.151035 7.795385 0.187101
Spine -20.759087 -6.377851 0.633363
Head 13.453334 -0.010807 -4.133368
LeftShoulder -22.358153 -38.495510 33.911145
LeftArm -6.217458 -22.826007 6.603378
LeftForeArm -32.003854 -0.000000 42.554250
LeftHand 2.440660 -0.000000 38.493196
LeftHandThumb1 -26.253704 0.000000 33.147579
RightShoulder -13.895330 -33.058771 -11.225894
RightArm -3.289766 -45.069071 51.175555
RightForeArm -25.887036 -0.000000 39.827635
RightHand 4.733585 -0.000000 19.831226
RightHandThumb1 -24.326973 -0.000000 -32.862282
LeftUpLeg -1.768297 1.810510 0.452362
LeftLeg -6.872726 -0.000000 0.000000
LeftFoot -20.028835 26.515135 -15.106091
LeftToeBase 23.768024 -0.000000 -0.000000
RightUpLeg -0.775545 -13.369495 -1.418520
RightLeg -3.807682 -0.000000 0.000000
RightFoot -23.265843 -24.026825 21.186708
RightToeBase 22.704704 -0.000000 -0.000000
